<?xml version="1.0" encoding="UTF-8" standalone="no"?>
<svg
   xmlns:dc="http://purl.org/dc/elements/1.1/"
   xmlns:cc="http://creativecommons.org/ns#"
   xmlns:rdf="http://www.w3.org/1999/02/22-rdf-syntax-ns#"
   xmlns:svg="http://www.w3.org/2000/svg"
   xmlns="http://www.w3.org/2000/svg"
   height="233.7"
   width="226.89999"
   id="svg8"
   version="1.1"
   viewBox="0 0 226.89999 233.69999">
  <metadata
     id="metadata14">
    <rdf:RDF>
      <cc:Work
         rdf:about="">
        <dc:format>image/svg+xml</dc:format>
        <dc:type
           rdf:resource="http://purl.org/dc/dcmitype/StillImage" />
      </cc:Work>
    </rdf:RDF>
  </metadata>
  <defs
     id="defs12" />
  <path
     id="path2"
     d="M 105.8,22.7 V 6.4 H 99.9 V 4.3 c 0.8,0 1.5,-0.1 2.2,-0.2 0.7,-0.1 1.4,-0.3 2,-0.7 0.6,-0.3 1.1,-0.8 1.5,-1.3 0.4,-0.6 0.7,-1.3 0.8,-2.1 h 2.1 v 22.7 z m 8.6,-17.9 c 0.3,-1 0.8,-1.8 1.4,-2.5 0.6,-0.7 1.4,-1.3 2.4,-1.7 0.9,-0.4 2,-0.6 3.2,-0.6 1,0 1.9,0.1 2.8,0.4 0.9,0.3 1.6,0.7 2.3,1.2 0.6,0.5 1.1,1.2 1.5,2 0.4,0.8 0.6,1.7 0.6,2.8 0,1 -0.2,1.9 -0.5,2.7 -0.3,0.8 -0.7,1.5 -1.2,2.1 -0.5,0.6 -1.1,1.2 -1.8,1.6 -0.7,0.5 -1.3,1 -2,1.4 -0.7,0.4 -1.4,0.8 -2.1,1.3 -0.7,0.5 -1.3,0.9 -1.9,1.3 -0.6,0.5 -1.1,1 -1.5,1.5 -0.4,0.5 -0.7,1.2 -0.8,1.9 h 11.6 v 2.4 h -14.8 c 0.1,-1.3 0.3,-2.5 0.7,-3.4 0.4,-0.9 0.8,-1.8 1.4,-2.5 0.6,-0.7 1.2,-1.3 2,-1.9 0.7,-0.5 1.5,-1 2.3,-1.5 1,-0.6 1.8,-1.1 2.5,-1.6 0.7,-0.5 1.3,-1 1.8,-1.5 0.5,-0.5 0.8,-1.1 1.1,-1.7 0.3,-0.6 0.4,-1.3 0.4,-2.1 0,-0.6 -0.1,-1.2 -0.4,-1.7 -0.2,-0.5 -0.5,-0.9 -0.9,-1.3 -0.4,-0.4 -0.9,-0.6 -1.4,-0.8 -0.5,-0.2 -1.1,-0.3 -1.7,-0.3 -0.8,0 -1.5,0.2 -2,0.5 -0.6,0.3 -1,0.8 -1.4,1.3 -0.4,0.5 -0.6,1.1 -0.8,1.8 -0.2,0.7 -0.2,1.3 -0.2,2 h -2.7 c -0.3,-1 -0.2,-2.1 0.1,-3.1 z m 52.4,33.4 V 21.9 h -5.9 v -2.2 c 0.8,0 1.5,-0.1 2.2,-0.2 0.7,-0.1 1.4,-0.3 2,-0.7 0.6,-0.3 1.1,-0.8 1.5,-1.3 0.4,-0.6 0.7,-1.3 0.8,-2.1 h 2.1 v 22.7 h -2.7 z m 32.4,21 c 0.3,-1 0.8,-1.8 1.4,-2.5 0.6,-0.7 1.4,-1.3 2.4,-1.7 0.9,-0.4 2,-0.6 3.2,-0.6 1,0 1.9,0.1 2.8,0.4 0.9,0.3 1.6,0.7 2.3,1.2 0.6,0.5 1.1,1.2 1.5,2 0.4,0.8 0.6,1.7 0.6,2.8 0,1 -0.2,1.9 -0.5,2.7 -0.3,0.8 -0.7,1.5 -1.2,2.1 -0.5,0.6 -1.1,1.2 -1.8,1.6 -0.7,0.5 -1.3,1 -2,1.4 -0.7,0.4 -1.4,0.8 -2.1,1.3 -0.7,0.5 -1.3,0.9 -1.9,1.3 -0.6,0.5 -1.1,1 -1.5,1.5 -0.4,0.5 -0.7,1.2 -0.8,1.9 h 11.6 V 77 h -14.9 c 0.1,-1.3 0.3,-2.5 0.7,-3.4 0.4,-0.9 0.8,-1.8 1.4,-2.5 0.6,-0.7 1.2,-1.3 2,-1.9 0.7,-0.5 1.5,-1 2.3,-1.5 1,-0.6 1.8,-1.1 2.5,-1.6 0.7,-0.5 1.3,-1 1.8,-1.5 0.5,-0.5 0.8,-1.1 1.1,-1.7 0.3,-0.6 0.4,-1.3 0.4,-2.1 0,-0.6 -0.1,-1.2 -0.4,-1.7 -0.2,-0.5 -0.5,-0.9 -0.9,-1.3 -0.4,-0.4 -0.9,-0.6 -1.4,-0.8 -0.5,-0.2 -1.1,-0.3 -1.7,-0.3 -0.8,0 -1.5,0.2 -2,0.5 -0.6,0.3 -1,0.8 -1.4,1.3 -0.4,0.5 -0.6,1.1 -0.8,1.8 -0.2,0.7 -0.2,1.3 -0.2,2 H 199 c -0.2,-1.1 -0.1,-2.1 0.2,-3.1 z m 18.7,55.9 h 0.9 c 0.6,0 1.1,-0.1 1.6,-0.2 0.5,-0.1 1,-0.4 1.4,-0.7 0.4,-0.3 0.7,-0.7 0.9,-1.2 0.2,-0.5 0.4,-1 0.4,-1.6 0,-1.2 -0.4,-2.1 -1.2,-2.7 -0.8,-0.6 -1.7,-0.9 -2.9,-0.9 -0.7,0 -1.4,0.1 -1.9,0.4 -0.5,0.3 -1,0.6 -1.3,1.1 -0.4,0.4 -0.6,1 -0.8,1.6 -0.2,0.6 -0.3,1.2 -0.3,1.9 H 212 c 0,-1.1 0.2,-2.1 0.5,-3 0.3,-0.9 0.8,-1.7 1.3,-2.3 0.6,-0.6 1.3,-1.1 2.2,-1.5 0.9,-0.4 1.9,-0.5 3,-0.5 1,0 1.9,0.1 2.7,0.4 0.8,0.3 1.6,0.6 2.2,1.1 0.6,0.5 1.1,1.1 1.5,1.9 0.4,0.8 0.5,1.7 0.5,2.7 0,1 -0.3,1.9 -0.9,2.7 -0.6,0.8 -1.3,1.4 -2.2,1.8 v 0.1 c 1.4,0.3 2.4,1 3.1,2 0.7,1 1,2.2 1,3.6 0,1.1 -0.2,2.1 -0.6,3 -0.4,0.9 -1,1.6 -1.7,2.2 -0.7,0.6 -1.5,1 -2.5,1.3 -1,0.3 -2,0.4 -3,0.4 -1.2,0 -2.2,-0.2 -3.1,-0.5 -0.9,-0.3 -1.7,-0.8 -2.4,-1.4 -0.7,-0.6 -1.2,-1.4 -1.5,-2.3 -0.4,-0.9 -0.5,-2 -0.5,-3.1 h 2.7 c 0,1.5 0.5,2.7 1.3,3.6 0.8,0.9 2,1.4 3.6,1.4 0.7,0 1.3,-0.1 1.9,-0.3 0.6,-0.2 1.1,-0.5 1.6,-0.9 0.5,-0.4 0.8,-0.8 1.1,-1.4 0.3,-0.6 0.4,-1.2 0.4,-1.8 0,-0.7 -0.1,-1.3 -0.4,-1.9 -0.3,-0.6 -0.6,-1 -1,-1.4 -0.4,-0.4 -0.9,-0.7 -1.5,-0.8 -0.6,-0.1 -1.2,-0.3 -1.9,-0.3 -0.6,0 -1.1,0 -1.6,0.1 V 115 c -0.1,0.1 0,0.1 0.1,0.1 z m -3.4,58.7 v 2.4 h -3.1 v 5.3 h -2.6 v -5.3 h -10 v -2.6 l 10.3,-14.8 h 2.2 v 15 z m -5.6,-11.1 -7.6,11.1 h 7.6 z m -44.9,36.7 -1.2,6.5 0.1,0.1 c 0.5,-0.6 1.1,-1 1.9,-1.2 0.8,-0.3 1.6,-0.4 2.3,-0.4 1,0 2,0.2 2.8,0.5 0.9,0.3 1.7,0.8 2.3,1.5 0.7,0.7 1.2,1.5 1.6,2.4 0.4,0.9 0.6,2.1 0.6,3.4 0,1 -0.2,1.9 -0.5,2.8 -0.3,0.9 -0.8,1.7 -1.5,2.4 -0.7,0.7 -1.5,1.3 -2.5,1.7 -1,0.4 -2.1,0.6 -3.5,0.6 -1,0 -1.9,-0.1 -2.8,-0.4 -0.9,-0.3 -1.6,-0.7 -2.3,-1.2 -0.7,-0.5 -1.2,-1.2 -1.6,-2 -0.4,-0.8 -0.6,-1.7 -0.6,-2.8 h 2.7 c 0,0.6 0.2,1.1 0.4,1.6 0.2,0.5 0.6,0.9 1,1.3 0.4,0.4 0.9,0.7 1.5,0.9 0.6,0.2 1.2,0.3 1.9,0.3 0.6,0 1.3,-0.1 1.8,-0.3 0.6,-0.2 1.1,-0.6 1.5,-1 0.4,-0.4 0.8,-1 1,-1.7 0.3,-0.7 0.4,-1.5 0.4,-2.4 0,-0.7 -0.1,-1.4 -0.4,-2.1 -0.3,-0.7 -0.6,-1.2 -1,-1.6 -0.4,-0.4 -1,-0.8 -1.6,-1.1 -0.6,-0.3 -1.3,-0.4 -2.1,-0.4 -0.9,0 -1.7,0.2 -2.4,0.6 -0.7,0.4 -1.3,0.9 -1.8,1.6 l -2.3,-0.1 2.1,-11.8 H 173 v 2.4 h -9 z m -47.3,14.7 c -0.7,-0.6 -1.5,-0.9 -2.6,-0.9 -1.2,0 -2.1,0.3 -2.8,0.8 -0.7,0.5 -1.3,1.3 -1.6,2.1 -0.3,0.8 -0.7,1.8 -0.8,2.8 -0.1,1 -0.2,1.9 -0.3,2.8 l 0.1,0.1 c 0.6,-1 1.4,-1.8 2.4,-2.3 0.9,-0.5 2,-0.7 3.3,-0.7 1.1,0 2.1,0.2 2.9,0.6 0.9,0.4 1.6,0.9 2.2,1.6 0.6,0.7 1,1.4 1.4,2.3 0.3,0.9 0.5,1.9 0.5,2.9 0,0.8 -0.1,1.7 -0.4,2.6 -0.3,0.9 -0.7,1.7 -1.3,2.4 -0.6,0.7 -1.4,1.3 -2.3,1.8 -1,0.5 -2.2,0.7 -3.6,0.7 -1.7,0 -3,-0.3 -4.1,-1 -1.1,-0.7 -1.8,-1.6 -2.4,-2.6 -0.6,-1.1 -0.9,-2.2 -1.1,-3.5 -0.2,-1.3 -0.3,-2.5 -0.3,-3.7 0,-1.6 0.1,-3.1 0.4,-4.5 0.3,-1.5 0.7,-2.8 1.4,-3.9 0.6,-1.1 1.5,-2 2.6,-2.7 1.1,-0.7 2.4,-1 4,-1 1.9,0 3.4,0.5 4.5,1.5 1.1,1 1.7,2.4 1.9,4.3 H 118 c -0.2,-1.1 -0.6,-1.9 -1.3,-2.5 z m -4.9,7.5 c -0.6,0.3 -1.1,0.6 -1.5,1.1 -0.4,0.5 -0.7,1 -0.9,1.6 -0.2,0.6 -0.3,1.3 -0.3,2 0,0.7 0.1,1.4 0.3,2 0.2,0.6 0.5,1.2 0.9,1.6 0.4,0.4 0.9,0.8 1.5,1.1 0.6,0.3 1.3,0.4 2,0.4 0.7,0 1.4,-0.1 2,-0.4 0.6,-0.3 1,-0.6 1.4,-1.1 0.4,-0.5 0.7,-1 0.9,-1.6 0.2,-0.6 0.3,-1.2 0.3,-1.9 0,-0.7 -0.1,-1.4 -0.3,-2 -0.2,-0.6 -0.5,-1.2 -0.8,-1.6 -0.4,-0.5 -0.9,-0.8 -1.4,-1.1 -0.5,-0.3 -1.2,-0.4 -2,-0.4 -0.9,-0.1 -1.5,0.1 -2.1,0.3 z M 65.2,203.4 c -1,1.6 -1.9,3.2 -2.7,5 -0.8,1.8 -1.4,3.6 -1.9,5.5 -0.5,1.9 -0.8,3.7 -0.9,5.5 h -3 c 0.1,-1.9 0.4,-3.8 0.9,-5.6 0.5,-1.8 1.1,-3.6 1.9,-5.2 0.8,-1.6 1.7,-3.3 2.7,-4.8 1,-1.5 2.1,-2.9 3.3,-4.1 H 53.8 V 197 h 14.7 v 2.3 c -1.2,1.2 -2.3,2.5 -3.3,4.1 z M 15.5,162.1 c 0.4,-0.7 0.9,-1.3 1.5,-1.8 0.6,-0.5 1.3,-0.9 2.1,-1.1 0.8,-0.3 1.6,-0.4 2.5,-0.4 1.2,0 2.3,0.2 3.2,0.5 0.9,0.3 1.6,0.8 2.1,1.3 0.5,0.5 0.9,1.2 1.2,1.9 0.3,0.7 0.4,1.4 0.4,2.1 0,1 -0.3,2 -0.8,2.8 -0.5,0.8 -1.3,1.5 -2.3,1.9 1.4,0.4 2.4,1.1 3,2.1 0.6,1 1,2.2 1,3.6 0,1.1 -0.2,2.1 -0.6,2.9 -0.4,0.9 -0.9,1.6 -1.6,2.2 -0.7,0.6 -1.5,1 -2.4,1.3 -0.9,0.3 -1.9,0.4 -2.9,0.4 -1.1,0 -2.1,-0.1 -3,-0.4 -0.9,-0.3 -1.8,-0.7 -2.4,-1.3 -0.6,-0.6 -1.2,-1.3 -1.6,-2.2 -0.4,-0.9 -0.6,-1.9 -0.6,-3 0,-1.3 0.3,-2.5 1,-3.5 0.7,-1 1.7,-1.7 2.9,-2.2 -1,-0.4 -1.7,-1 -2.3,-1.9 -0.6,-0.9 -0.9,-1.8 -0.9,-2.8 -0.1,-0.9 0.1,-1.7 0.5,-2.4 z m 2.9,16.2 c 0.9,0.8 2.1,1.2 3.5,1.2 0.7,0 1.3,-0.1 1.9,-0.3 0.6,-0.2 1.1,-0.5 1.5,-0.9 0.4,-0.4 0.7,-0.9 1,-1.4 0.3,-0.5 0.3,-1.1 0.3,-1.8 0,-0.6 -0.1,-1.2 -0.4,-1.7 -0.3,-0.5 -0.6,-1 -1,-1.4 -0.4,-0.4 -0.9,-0.7 -1.5,-0.9 -0.6,-0.2 -1.2,-0.3 -1.8,-0.3 -0.7,0 -1.3,0.1 -1.9,0.3 -0.6,0.2 -1.1,0.5 -1.5,0.9 -0.4,0.4 -0.8,0.8 -1,1.4 -0.2,0.5 -0.4,1.1 -0.4,1.8 -0.1,1.2 0.3,2.3 1.3,3.1 z m -0.3,-12 c 0.2,0.5 0.5,0.8 0.9,1.1 0.4,0.3 0.8,0.5 1.3,0.7 0.5,0.1 1,0.2 1.6,0.2 1.1,0 2,-0.3 2.7,-1 0.7,-0.6 1.1,-1.5 1.1,-2.7 0,-1.2 -0.4,-2 -1.1,-2.6 -0.7,-0.6 -1.6,-0.9 -2.7,-0.9 -0.5,0 -1,0.1 -1.5,0.2 -0.5,0.1 -0.9,0.4 -1.3,0.7 -0.4,0.3 -0.6,0.7 -0.8,1.1 -0.2,0.4 -0.3,0.9 -0.3,1.5 -0.2,0.7 -0.1,1.2 0.1,1.7 z M 4.8,125.1 c 0.8,0.6 1.7,0.9 2.8,0.9 1.7,0 2.9,-0.7 3.7,-2.2 0.8,-1.5 1.3,-3.6 1.4,-6.6 l -0.1,-0.1 c -0.5,1 -1.2,1.7 -2.2,2.3 -0.9,0.6 -2,0.8 -3.1,0.8 -1.2,0 -2.2,-0.2 -3.1,-0.6 -0.9,-0.4 -1.6,-0.9 -2.3,-1.6 -0.6,-0.7 -1.1,-1.5 -1.4,-2.4 -0.3,-0.9 -0.5,-2 -0.5,-3.1 0,-1.1 0.2,-2.1 0.5,-3 0.4,-0.9 0.9,-1.7 1.5,-2.3 0.7,-0.7 1.5,-1.2 2.4,-1.5 0.9,-0.4 1.9,-0.5 3,-0.5 1.1,0 2.1,0.2 3,0.5 0.9,0.3 1.8,0.9 2.5,1.7 0.7,0.8 1.3,1.9 1.7,3.3 0.4,1.4 0.6,3.2 0.6,5.3 0,3.9 -0.6,6.9 -1.9,9 -1.2,2.1 -3.2,3.2 -6,3.2 -1.9,0 -3.5,-0.5 -4.7,-1.4 -1.2,-0.9 -2,-2.4 -2.1,-4.4 h 2.7 c 0.4,1.2 0.9,2.1 1.6,2.7 z M 12,110.9 c -0.2,-0.6 -0.5,-1.2 -0.9,-1.6 -0.4,-0.4 -0.9,-0.9 -1.5,-1.1 -0.6,-0.3 -1.2,-0.4 -2,-0.4 -0.8,0 -1.5,0.1 -2.1,0.4 -0.6,0.3 -1,0.7 -1.4,1.2 -0.4,0.5 -0.6,1.1 -0.8,1.7 -0.2,0.6 -0.2,1.3 -0.2,2 0,0.6 0.1,1.2 0.3,1.8 0.2,0.6 0.5,1.1 0.9,1.5 0.4,0.4 0.9,0.8 1.4,1.1 0.5,0.3 1.1,0.4 1.8,0.4 0.7,0 1.3,-0.1 1.9,-0.4 0.6,-0.3 1.1,-0.6 1.5,-1.1 0.4,-0.5 0.7,-1 0.9,-1.6 0.2,-0.6 0.3,-1.2 0.3,-1.9 0.2,-0.7 0.1,-1.4 -0.1,-2 z M 13.9,76 V 59.8 H 8.1 v -2.2 c 0.8,0 1.5,-0.1 2.2,-0.2 0.7,-0.1 1.4,-0.3 2,-0.7 0.6,-0.3 1.1,-0.8 1.5,-1.3 0.4,-0.6 0.7,-1.3 0.8,-2.1 h 2.1 V 76 Z m 8.3,-13.7 c 0,-0.9 0.1,-1.8 0.3,-2.6 0.2,-0.9 0.4,-1.7 0.7,-2.4 0.3,-0.8 0.8,-1.4 1.3,-2 0.6,-0.6 1.3,-1 2.1,-1.4 0.8,-0.4 1.9,-0.5 3,-0.5 1.2,0 2.2,0.2 3,0.5 0.8,0.3 1.5,0.8 2.1,1.4 0.6,0.6 1,1.2 1.3,2 0.3,0.8 0.6,1.6 0.7,2.4 0.2,0.9 0.3,1.7 0.3,2.6 0,0.9 0.1,1.8 0.1,2.6 0,0.8 0,1.7 -0.1,2.6 -0.1,0.9 -0.1,1.8 -0.3,2.6 -0.2,0.9 -0.4,1.7 -0.7,2.4 -0.3,0.7 -0.8,1.4 -1.3,2 -0.6,0.6 -1.2,1 -2.1,1.4 -0.9,0.4 -1.8,0.5 -3,0.5 -1.2,0 -2.2,-0.2 -3,-0.5 -0.8,-0.3 -1.5,-0.8 -2.1,-1.4 -0.6,-0.6 -1,-1.2 -1.3,-2 -0.3,-0.8 -0.6,-1.6 -0.7,-2.4 -0.2,-0.9 -0.3,-1.7 -0.3,-2.6 0,-0.9 -0.1,-1.8 -0.1,-2.6 0.1,-0.8 0.1,-1.7 0.1,-2.6 z m 2.9,5.4 c 0.1,1.1 0.2,2 0.5,3 0.3,0.9 0.8,1.7 1.4,2.4 0.6,0.7 1.5,1 2.7,1 1.2,0 2,-0.3 2.7,-1 0.7,-0.7 1.1,-1.4 1.4,-2.4 0.3,-0.9 0.5,-1.9 0.5,-3 0.1,-1.1 0.1,-2 0.1,-2.9 V 63 c 0,-0.7 -0.1,-1.3 -0.2,-2 -0.1,-0.7 -0.2,-1.3 -0.4,-2 -0.2,-0.6 -0.4,-1.2 -0.8,-1.7 -0.4,-0.5 -0.8,-0.9 -1.3,-1.2 -0.5,-0.3 -1.2,-0.4 -2,-0.4 -0.8,0 -1.4,0.1 -2,0.4 -0.5,0.3 -1,0.7 -1.3,1.2 -0.4,0.5 -0.6,1 -0.8,1.7 -0.2,0.6 -0.3,1.3 -0.4,2 -0.1,0.7 -0.1,1.3 -0.2,2 v 1.8 c 0.1,0.9 0.1,1.9 0.1,2.9 z" />
  <g
     transform="translate(0.3)"
     id="g6">
    <path
       id="path4"
       d="M 53.5,38.2 V 21.9 h -5.9 v -2.2 c 0.8,0 1.5,-0.1 2.2,-0.2 0.7,-0.1 1.4,-0.3 2,-0.7 0.6,-0.3 1.1,-0.8 1.5,-1.3 0.4,-0.6 0.7,-1.3 0.8,-2.1 h 2.1 v 22.7 h -2.7 z m 15.6,0 V 21.9 h -5.9 v -2.2 c 0.8,0 1.5,-0.1 2.2,-0.2 0.7,-0.1 1.4,-0.3 2,-0.7 0.6,-0.3 1.1,-0.8 1.5,-1.3 0.4,-0.6 0.7,-1.3 0.8,-2.1 h 2.1 v 22.7 h -2.7 z" />
  </g>
</svg>
